<svg version="1.1" id="Layer_1" xmlns="http://www.w3.org/2000/svg" xmlns:xlink="http://www.w3.org/1999/xlink" x="0px" y="0px"
	 width="100%" viewBox="0 0 3400 3307" enable-background="new 0 0 3400 3307" xml:space="preserve">
<path fill="#000000" opacity="1.000000" stroke="none" 
	d="
M1930.000000,3310.000000 
	C1286.666870,3310.000000 644.333740,3310.000000 2.000431,3310.000000 
	C2.000287,2207.333740 2.000287,1104.667725 2.000144,2.001171 
	C1135.332397,2.000780 2268.664795,2.000780 3401.998047,2.000390 
	C3401.998535,1104.665405 3401.998535,2207.330811 3401.999268,3309.998047 
	C2911.666748,3310.000000 2421.333252,3310.000000 1930.000000,3310.000000 
M1002.530640,271.573669 
	C969.103027,290.481476 938.181946,312.703796 909.919312,338.857391 
	C879.249084,367.238953 851.592285,398.044769 828.098022,432.626434 
	C796.466309,479.185669 772.971863,529.574402 755.923645,583.137390 
	C738.418579,638.135742 728.063660,694.570007 724.697998,751.994385 
	C721.875183,800.156189 722.241089,848.535217 726.167419,896.690613 
	C728.131226,920.775085 732.017395,944.729248 735.676147,968.644104 
	C747.685303,1047.140503 769.469360,1122.984985 798.961548,1196.617920 
	C818.754395,1246.034790 841.471619,1294.104004 866.860840,1340.927734 
	C898.304016,1398.916504 933.179138,1454.753784 971.539307,1508.374878 
	C1021.698486,1578.489136 1076.205933,1645.082153 1135.032471,1708.137329 
	C1165.914429,1741.239502 1196.801758,1774.322754 1230.066284,1805.078979 
	C1264.479736,1836.897583 1298.231445,1869.480957 1333.585205,1900.220337 
	C1373.190430,1934.656128 1413.588135,1968.266602 1454.898926,2000.630371 
	C1495.199097,2032.202393 1536.625366,2062.400635 1578.432617,2091.964355 
	C1608.825928,2113.456787 1640.388916,2133.341064 1671.922363,2153.159180 
	C1690.975342,2165.133789 1716.142456,2164.422607 1735.535156,2153.386963 
	C1774.040405,2131.474854 1810.589966,2106.523682 1846.771362,2081.076416 
	C1912.900757,2034.566040 1977.100098,1985.460571 2038.051880,1932.336548 
	C2082.402344,1893.681641 2126.096924,1854.213379 2168.839355,1813.791992 
	C2207.762695,1776.982422 2245.171143,1738.538940 2280.611816,1698.303101 
	C2308.262695,1666.910889 2336.045166,1635.589355 2362.502930,1603.201904 
	C2405.636230,1550.401367 2445.354980,1495.049683 2482.099854,1437.579224 
	C2521.022461,1376.702271 2555.980713,1313.679932 2585.650635,1247.766846 
	C2613.390869,1186.141968 2636.179199,1122.758301 2652.953125,1057.262573 
	C2662.848389,1018.625854 2670.773926,979.564697 2675.572754,939.974976 
	C2678.602539,914.977356 2681.008789,889.835815 2682.092529,864.689758 
	C2683.196289,839.074280 2681.821533,813.361450 2682.456299,787.714111 
	C2683.447998,747.642822 2679.274902,708.107117 2672.207031,668.762024 
	C2660.141357,601.594177 2639.623047,537.296692 2606.566406,477.389984 
	C2575.268799,420.670685 2535.717041,370.535156 2486.044678,328.604279 
	C2429.072021,280.510742 2364.876221,245.762878 2293.553711,224.263626 
	C2260.072754,214.171127 2226.010498,206.213745 2191.026611,204.096481 
	C2163.812012,202.449417 2136.487305,202.316742 2109.208252,202.164948 
	C2096.949707,202.096741 2084.584229,202.900650 2072.435059,204.547897 
	C2001.962891,214.102890 1934.786255,234.190872 1872.052002,268.221527 
	C1831.161499,290.402832 1793.850098,317.444946 1760.852051,350.262299 
	C1742.670288,368.344604 1726.270996,387.980988 1711.770630,409.175140 
	C1709.418091,412.613678 1706.598389,415.732513 1703.328369,419.835175 
	C1699.705933,414.985352 1696.881958,411.342072 1694.202637,407.595367 
	C1673.428101,378.543030 1650.134644,351.640015 1622.996216,328.439941 
	C1586.916748,297.596283 1547.157593,272.234833 1503.833008,252.663818 
	C1438.057373,222.950867 1369.466553,204.427460 1297.043823,202.118851 
	C1251.412231,200.664261 1205.924561,202.042480 1161.049927,212.034424 
	C1105.871094,224.320755 1053.094482,242.892899 1002.530640,271.573669 
M1147.935913,2619.028320 
	C1147.988892,2612.031006 1147.729004,2605.014160 1148.169189,2598.041260 
	C1148.803101,2587.999512 1152.722900,2584.357178 1162.542114,2583.941650 
	C1165.869385,2583.800537 1169.206665,2583.886475 1172.539429,2583.886475 
	C1299.185181,2583.884277 1425.830811,2583.923828 1552.476440,2583.783203 
	C1560.074585,2583.774902 1567.879883,2583.171387 1575.221191,2581.357178 
	C1587.226807,2578.389404 1598.603027,2573.885986 1606.610107,2563.350098 
	C1622.295776,2542.711182 1622.671021,2520.334961 1614.322266,2497.129639 
	C1611.498657,2489.281250 1606.183228,2482.942383 1599.531372,2477.407715 
	C1586.557007,2466.612549 1571.063721,2464.127930 1555.439575,2464.217041 
	C1406.178223,2465.067383 1256.900635,2461.652344 1107.651489,2465.832275 
	C1092.114502,2466.267334 1077.381104,2470.210205 1062.777588,2474.877197 
	C1059.361694,2475.968750 1055.993286,2477.872070 1053.201416,2480.139160 
	C1040.472778,2490.474365 1030.472900,2503.141357 1026.950562,2519.284424 
	C1023.632324,2534.491943 1020.509033,2550.111572 1020.363892,2565.578857 
	C1019.660461,2640.559814 1019.965149,2715.550781 1019.957642,2790.538086 
	C1019.950806,2858.859863 1019.695068,2927.183838 1020.196350,2995.502197 
	C1020.368164,3018.910400 1024.298218,3041.933594 1034.215576,3063.517822 
	C1038.963867,3073.852051 1046.364502,3081.562012 1056.640259,3086.650391 
	C1076.501099,3096.485352 1097.611694,3100.029785 1119.566528,3100.023438 
	C1266.208984,3099.980957 1412.851318,3100.002930 1559.493774,3100.001221 
	C1561.826538,3100.001221 1564.179932,3100.158447 1566.488525,3099.912598 
	C1582.228149,3098.236816 1596.838501,3093.156982 1606.741821,3080.451416 
	C1622.495117,3060.240723 1623.136108,3037.559814 1614.128662,3014.300781 
	C1609.464478,3002.257568 1600.833496,2993.735840 1589.037842,2988.435791 
	C1578.516235,2983.708496 1567.454712,2981.978760 1555.975342,2981.982666 
	C1427.329956,2982.026611 1298.684570,2982.016846 1170.039185,2981.998779 
	C1151.154785,2981.996338 1148.099487,2978.883545 1147.939941,2959.879150 
	C1147.926025,2958.212646 1147.934204,2956.546387 1147.934204,2954.879883 
	C1147.934570,2921.552002 1147.932617,2888.224365 1147.937378,2854.896484 
	C1147.939819,2837.895020 1147.945435,2837.886963 1164.787720,2837.886230 
	C1266.104248,2837.883057 1367.421021,2837.939453 1468.737305,2837.780029 
	C1477.008057,2837.767090 1485.459717,2837.102783 1493.499634,2835.288574 
	C1503.533203,2833.024170 1513.405762,2829.548096 1520.997559,2821.946289 
	C1537.387939,2805.533936 1540.145508,2785.486816 1536.474121,2763.684082 
	C1532.661133,2741.040527 1518.896973,2727.358154 1497.289795,2722.035156 
	C1486.421509,2719.357178 1474.919556,2718.200684 1463.698853,2718.168457 
	C1363.716309,2717.882080 1263.732422,2718.002686 1163.749023,2717.991943 
	C1160.418091,2717.991699 1157.080811,2717.981201 1153.758179,2717.780518 
	C1150.228394,2717.567383 1148.331421,2715.499268 1148.132202,2711.997803 
	C1147.980835,2709.338379 1147.945923,2706.669434 1147.944702,2704.004883 
	C1147.931763,2676.342773 1147.936035,2648.680664 1147.935913,2619.028320 
M1847.624390,2822.579590 
	C1841.078125,2834.928467 1834.557861,2847.291016 1827.980225,2859.623291 
	C1813.563965,2886.652100 1799.050781,2913.629395 1784.708130,2940.697266 
	C1773.952881,2960.994629 1763.757568,2981.597168 1752.630493,3001.685791 
	C1745.616943,3014.347900 1739.945801,3027.413818 1737.355103,3041.575684 
	C1736.245361,3047.642090 1736.393799,3054.189209 1737.292969,3060.323975 
	C1739.579712,3075.923340 1747.968506,3087.917480 1760.485229,3097.412354 
	C1788.136963,3118.388672 1826.323242,3109.688232 1842.379395,3092.819336 
	C1853.755127,3080.867676 1862.965332,3067.592773 1870.529663,3053.018799 
	C1885.717773,3023.756104 1901.215820,2994.652100 1916.150879,2965.261475 
	C1919.633545,2958.407715 1923.829468,2955.705078 1931.642456,2955.719727 
	C2051.260742,2955.945557 2170.880127,2955.963135 2290.498047,2955.690674 
	C2298.855225,2955.671631 2303.379639,2958.917725 2306.888428,2965.818115 
	C2314.887939,2981.550537 2323.007324,2997.229736 2331.454834,3012.725098 
	C2343.081787,3034.052734 2354.943848,3055.254639 2366.915283,3076.391357 
	C2378.109375,3096.154785 2395.832764,3105.957764 2417.801270,3109.343018 
	C2441.601318,3113.010254 2468.741455,3099.261230 2480.065430,3078.091553 
	C2487.441895,3064.301758 2487.200195,3049.912842 2484.754883,3035.289062 
	C2482.355713,3020.942383 2475.322266,3008.369141 2468.507080,2995.757080 
	C2460.909912,2981.697021 2453.399414,2967.590088 2445.874023,2953.491455 
	C2436.313477,2935.580078 2426.775146,2917.656738 2417.229736,2899.737061 
	C2404.861816,2876.518311 2392.484375,2853.304688 2380.133789,2830.076660 
	C2371.540039,2813.914551 2363.015137,2797.715576 2354.405518,2781.561768 
	C2341.093750,2756.584961 2327.704102,2731.649414 2314.406250,2706.665039 
	C2300.487305,2680.513184 2286.663330,2654.310791 2272.751221,2628.155273 
	C2259.147461,2602.580078 2245.211426,2577.177490 2231.934814,2551.434326 
	C2221.224365,2530.666504 2209.846191,2510.378906 2194.831299,2492.378418 
	C2179.836182,2474.401855 2161.090332,2461.883789 2137.877197,2458.066895 
	C2124.863281,2455.927246 2111.270508,2455.316895 2098.132324,2456.390137 
	C2078.381104,2458.003662 2059.794189,2463.891357 2043.676270,2476.575439 
	C2029.492920,2487.737061 2018.777832,2501.704102 2009.881714,2516.918945 
	C1997.962036,2537.304688 1987.326050,2558.442383 1976.183228,2579.280762 
	C1961.424316,2606.881348 1946.641235,2634.469238 1931.996826,2662.130615 
	C1922.027832,2680.960449 1912.345581,2699.942139 1902.417236,2718.793701 
	C1884.417358,2752.972168 1866.329102,2787.104004 1847.624390,2822.579590 
M331.901764,2919.000000 
	C331.901978,2897.005859 331.891113,2875.011719 331.906219,2853.017578 
	C331.916595,2837.922852 331.932739,2837.891113 346.646149,2837.890137 
	C463.616425,2837.881104 580.586731,2837.880615 697.557007,2837.891113 
	C711.891235,2837.892334 711.924622,2837.930176 711.927979,2852.356934 
	C711.942017,2912.675049 711.932007,2972.992920 711.937134,3033.311035 
	C711.937805,3040.642334 711.595337,3047.998291 712.069397,3055.300293 
	C713.514465,3077.555176 724.887085,3093.916504 744.514526,3103.355713 
	C761.552795,3111.549805 779.991638,3112.273193 798.133606,3106.145752 
	C816.597656,3099.909180 829.904663,3087.913818 835.260864,3068.789062 
	C837.288757,3061.548096 838.007202,3053.723877 838.012817,3046.164795 
	C838.140381,2874.541748 838.086304,2702.918945 838.064453,2531.295898 
	C838.063538,2523.964600 838.370728,2516.615234 837.968811,2509.305420 
	C837.038757,2492.391846 829.653564,2478.623535 816.346985,2468.252441 
	C799.260925,2454.935791 779.528870,2454.110596 759.251038,2457.219727 
	C748.553894,2458.859863 738.713745,2462.851562 730.662292,2470.427734 
	C717.799194,2482.531738 711.904297,2497.527344 711.918701,2515.094238 
	C711.969543,2577.078369 711.936584,2639.062744 711.932190,2701.046875 
	C711.931946,2704.045898 712.056274,2707.055908 711.851624,2710.041992 
	C711.413147,2716.440674 710.391357,2717.438721 704.091309,2717.929199 
	C702.102783,2718.084473 700.094299,2717.998047 698.094971,2717.998047 
	C580.791443,2718.000488 463.487915,2718.004395 346.184387,2717.994385 
	C331.941956,2717.993164 331.911438,2717.957520 331.907959,2703.461182 
	C331.894531,2647.475342 332.003906,2591.489258 331.810089,2535.503906 
	C331.774506,2525.221191 331.239166,2514.837891 329.719055,2504.682861 
	C326.215393,2481.276611 310.517548,2462.015381 285.721039,2457.903076 
	C275.956177,2456.283936 265.721741,2455.292969 255.954315,2456.351562 
	C235.649750,2458.552246 219.389465,2467.815186 210.182053,2487.260010 
	C205.950012,2496.197266 203.885086,2505.350830 203.888809,2515.224609 
	C203.955826,2693.512695 203.936172,2871.800537 203.939957,3050.088623 
	C203.940002,3052.420898 203.796448,3054.777588 204.070129,3057.081299 
	C205.903366,3072.513916 211.795624,3085.600830 224.216309,3095.822266 
	C234.246918,3104.076660 245.834686,3107.696533 258.075714,3109.226562 
	C294.366272,3113.762451 326.507538,3092.751709 330.121918,3056.817139 
	C330.919373,3048.888916 331.784821,3040.923340 331.822815,3032.970947 
	C332.001068,2995.648193 331.901550,2958.323730 331.901764,2919.000000 
M3171.227539,2987.406494 
	C3160.460449,2983.512939 3149.394043,2981.928711 3137.908691,2981.939697 
	C3017.251221,2982.053223 2896.593506,2982.016357 2775.936035,2981.983154 
	C2771.282715,2981.981934 2766.596436,2981.871826 2761.984619,2981.318604 
	C2756.135498,2980.617188 2751.971191,2977.641113 2751.370361,2971.262451 
	C2750.841064,2965.645996 2750.108398,2960.013428 2750.105713,2954.387695 
	C2750.035645,2812.065186 2750.050781,2669.742676 2750.043945,2527.420166 
	C2750.043701,2522.754150 2750.145752,2518.079590 2749.907471,2513.423828 
	C2748.437256,2484.716797 2732.142090,2463.984863 2704.371826,2457.499023 
	C2695.162598,2455.348389 2685.123047,2455.559814 2675.578857,2456.263428 
	C2648.186768,2458.282959 2629.078613,2477.819336 2624.233398,2501.945068 
	C2622.802734,2509.068115 2622.167969,2516.468994 2622.162109,2523.743164 
	C2622.046143,2669.731934 2622.007080,2815.720947 2622.163818,2961.709717 
	C2622.183105,2979.660645 2623.020020,2997.635742 2624.186523,3015.553711 
	C2625.275879,3032.284180 2629.306152,3048.388916 2636.726562,3063.596436 
	C2641.741211,3073.873535 2649.076904,3081.568604 2659.277832,3086.748047 
	C2678.778320,3096.649414 2699.674561,3099.968994 2721.225830,3099.977051 
	C2862.548340,3100.028809 3003.871094,3100.003418 3145.193604,3100.000244 
	C3147.526611,3100.000244 3149.909912,3100.273193 3152.184814,3099.899902 
	C3172.031250,3096.642334 3189.342285,3089.676758 3198.302246,3069.575439 
	C3204.229248,3056.278564 3205.230469,3042.523193 3202.997314,3028.514893 
	C3200.021240,3009.845947 3190.093018,2996.001221 3171.227539,2987.406494 
z"/>
<path fill="#4A90E2" opacity="1.000000" stroke="none" 
	d="
M1003.151123,271.179138 
	C1053.094482,242.892899 1105.871094,224.320755 1161.049927,212.034424 
	C1205.924561,202.042480 1251.412231,200.664261 1297.043823,202.118851 
	C1369.466553,204.427460 1438.057373,222.950867 1503.833008,252.663818 
	C1547.157593,272.234833 1586.916748,297.596283 1622.996216,328.439941 
	C1650.134644,351.640015 1673.428101,378.543030 1694.202637,407.595367 
	C1696.881958,411.342072 1699.705933,414.985352 1703.328369,419.835175 
	C1706.598389,415.732513 1709.418091,412.613678 1711.770630,409.175140 
	C1726.270996,387.980988 1742.670288,368.344604 1760.852051,350.262299 
	C1793.850098,317.444946 1831.161499,290.402832 1872.052002,268.221527 
	C1934.786255,234.190872 2001.962891,214.102890 2072.435059,204.547897 
	C2084.584229,202.900650 2096.949707,202.096741 2109.208252,202.164948 
	C2136.487305,202.316742 2163.812012,202.449417 2191.026611,204.096481 
	C2226.010498,206.213745 2260.072754,214.171127 2293.553711,224.263626 
	C2364.876221,245.762878 2429.072021,280.510742 2486.044678,328.604279 
	C2535.717041,370.535156 2575.268799,420.670685 2606.566406,477.389984 
	C2639.623047,537.296692 2660.141357,601.594177 2672.207031,668.762024 
	C2679.274902,708.107117 2683.447998,747.642822 2682.456299,787.714111 
	C2681.821533,813.361450 2683.196289,839.074280 2682.092529,864.689758 
	C2681.008789,889.835815 2678.602539,914.977356 2675.572754,939.974976 
	C2670.773926,979.564697 2662.848389,1018.625854 2652.953125,1057.262573 
	C2636.179199,1122.758301 2613.390869,1186.141968 2585.650635,1247.766846 
	C2555.980713,1313.679932 2521.022461,1376.702271 2482.099854,1437.579224 
	C2445.354980,1495.049683 2405.636230,1550.401367 2362.502930,1603.201904 
	C2336.045166,1635.589355 2308.262695,1666.910889 2280.611816,1698.303101 
	C2245.171143,1738.538940 2207.762695,1776.982422 2168.839355,1813.791992 
	C2126.096924,1854.213379 2082.402344,1893.681641 2038.051880,1932.336548 
	C1977.100098,1985.460571 1912.900757,2034.566040 1846.771362,2081.076416 
	C1810.589966,2106.523682 1774.040405,2131.474854 1735.535156,2153.386963 
	C1716.142456,2164.422607 1690.975342,2165.133789 1671.922363,2153.159180 
	C1640.388916,2133.341064 1608.825928,2113.456787 1578.432617,2091.964355 
	C1536.625366,2062.400635 1495.199097,2032.202393 1454.898926,2000.630371 
	C1413.588135,1968.266602 1373.190430,1934.656128 1333.585205,1900.220337 
	C1298.231445,1869.480957 1264.479736,1836.897583 1230.066284,1805.078979 
	C1196.801758,1774.322754 1165.914429,1741.239502 1135.032471,1708.137329 
	C1076.205933,1645.082153 1021.698486,1578.489136 971.539307,1508.374878 
	C933.179138,1454.753784 898.304016,1398.916504 866.860840,1340.927734 
	C841.471619,1294.104004 818.754395,1246.034790 798.961548,1196.617920 
	C769.469360,1122.984985 747.685303,1047.140503 735.676147,968.644104 
	C732.017395,944.729248 728.131226,920.775085 726.167419,896.690613 
	C722.241089,848.535217 721.875183,800.156189 724.697998,751.994385 
	C728.063660,694.570007 738.418579,638.135742 755.923645,583.137390 
	C772.971863,529.574402 796.466309,479.185669 828.098022,432.626434 
	C851.592285,398.044769 879.249084,367.238953 909.919312,338.857391 
	C938.181946,312.703796 969.103027,290.481476 1003.151123,271.179138 
M1768.511353,903.516174 
	C1760.543335,912.861450 1752.289429,921.981201 1744.688477,931.616089 
	C1737.277344,941.010498 1730.503784,950.910034 1723.505249,960.627319 
	C1716.483643,970.376587 1711.574829,981.611389 1703.216919,991.704102 
	C1700.030151,986.834412 1697.561157,983.348083 1695.382324,979.688965 
	C1665.581055,929.641968 1627.327637,887.058899 1581.321533,851.502136 
	C1516.457642,801.370972 1443.345825,769.945618 1361.930664,760.550537 
	C1324.715576,756.256104 1286.882202,757.171204 1249.317871,756.135193 
	C1236.700195,755.787231 1224.048096,756.759338 1211.409912,757.039001 
	C1203.690430,757.209900 1196.196655,758.169434 1189.179321,761.732544 
	C1167.702515,772.637756 1155.738525,789.732239 1155.725708,814.145264 
	C1155.708374,847.457642 1156.400513,880.771790 1156.237915,914.082458 
	C1156.089722,944.455688 1159.664429,974.307129 1166.294067,1003.903015 
	C1174.545532,1040.738770 1186.783081,1076.184204 1204.022461,1109.717407 
	C1226.831543,1154.084839 1255.869995,1193.882568 1291.645996,1228.961182 
	C1330.574341,1267.130737 1374.414185,1297.754150 1423.994629,1320.241455 
	C1463.899780,1338.340332 1505.608032,1350.232422 1548.996948,1356.336670 
	C1573.084473,1359.725586 1597.281738,1361.052002 1621.588013,1361.161621 
	C1630.089600,1361.199951 1638.587524,1362.084106 1647.300903,1362.594482 
	C1647.456421,1365.093872 1647.633911,1366.718750 1647.647217,1368.344971 
	C1647.884399,1397.326660 1648.224487,1426.308228 1648.294434,1455.290405 
	C1648.403809,1500.619873 1648.322144,1545.950073 1648.343506,1591.279907 
	C1648.344727,1593.938354 1647.811768,1596.898560 1648.765381,1599.206909 
	C1655.448730,1615.384155 1665.409668,1628.841187 1682.179321,1635.719727 
	C1707.516968,1646.112549 1735.419434,1637.089966 1750.493652,1614.027588 
	C1755.686035,1606.083618 1758.751221,1597.890625 1758.534668,1587.952393 
	C1757.953857,1561.300293 1758.185181,1534.626343 1758.371582,1507.963013 
	C1758.697510,1461.354492 1759.223755,1414.747437 1759.706177,1368.140137 
	C1759.725586,1366.272827 1760.159058,1364.409546 1760.423340,1362.359985 
	C1779.305054,1361.563721 1797.532104,1360.623535 1815.770752,1360.067261 
	C1841.437866,1359.284546 1866.702271,1355.856445 1891.810059,1350.439087 
	C1978.007324,1331.840332 2051.934326,1290.600830 2115.159668,1229.715210 
	C2132.906494,1212.625000 2148.713867,1193.723389 2163.388428,1173.868042 
	C2195.128174,1130.922241 2217.992676,1083.626465 2233.487549,1032.646606 
	C2246.836670,988.726746 2251.163330,943.572327 2251.622559,897.932495 
	C2251.880859,872.270386 2251.781006,846.602722 2251.592773,820.939331 
	C2251.544189,814.338623 2251.013428,807.666077 2249.906494,801.162415 
	C2246.312744,780.050659 2224.723877,759.679626 2203.472412,757.304077 
	C2195.888184,756.456299 2188.207031,755.981140 2180.580811,756.090515 
	C2146.633057,756.577576 2112.690918,757.708679 2078.743164,757.886841 
	C2049.549072,758.040100 2021.183716,763.334900 1993.028320,770.116760 
	C1944.058594,781.912598 1898.713623,802.301819 1856.458740,829.512024 
	C1824.420044,850.143616 1795.687866,874.843140 1768.511353,903.516174 
z"/>
<path fill="#1C1C1C" opacity="1.000000" stroke="none" 
	d="
M1147.935791,2620.023438 
	C1147.936035,2648.680664 1147.931763,2676.342773 1147.944702,2704.004883 
	C1147.945923,2706.669434 1147.980835,2709.338379 1148.132202,2711.997803 
	C1148.331421,2715.499268 1150.228394,2717.567383 1153.758179,2717.780518 
	C1157.080811,2717.981201 1160.418091,2717.991699 1163.749023,2717.991943 
	C1263.732422,2718.002686 1363.716309,2717.882080 1463.698853,2718.168457 
	C1474.919556,2718.200684 1486.421509,2719.357178 1497.289795,2722.035156 
	C1518.896973,2727.358154 1532.661133,2741.040527 1536.474121,2763.684082 
	C1540.145508,2785.486816 1537.387939,2805.533936 1520.997559,2821.946289 
	C1513.405762,2829.548096 1503.533203,2833.024170 1493.499634,2835.288574 
	C1485.459717,2837.102783 1477.008057,2837.767090 1468.737305,2837.780029 
	C1367.421021,2837.939453 1266.104248,2837.883057 1164.787720,2837.886230 
	C1147.945435,2837.886963 1147.939819,2837.895020 1147.937378,2854.896484 
	C1147.932617,2888.224365 1147.934570,2921.552002 1147.934204,2954.879883 
	C1147.934204,2956.546387 1147.926025,2958.212646 1147.939941,2959.879150 
	C1148.099487,2978.883545 1151.154785,2981.996338 1170.039185,2981.998779 
	C1298.684570,2982.016846 1427.329956,2982.026611 1555.975342,2981.982666 
	C1567.454712,2981.978760 1578.516235,2983.708496 1589.037842,2988.435791 
	C1600.833496,2993.735840 1609.464478,3002.257568 1614.128662,3014.300781 
	C1623.136108,3037.559814 1622.495117,3060.240723 1606.741821,3080.451416 
	C1596.838501,3093.156982 1582.228149,3098.236816 1566.488525,3099.912598 
	C1564.179932,3100.158447 1561.826538,3100.001221 1559.493774,3100.001221 
	C1412.851318,3100.002930 1266.208984,3099.980957 1119.566528,3100.023438 
	C1097.611694,3100.029785 1076.501099,3096.485352 1056.640259,3086.650391 
	C1046.364502,3081.562012 1038.963867,3073.852051 1034.215576,3063.517822 
	C1024.298218,3041.933594 1020.368164,3018.910400 1020.196350,2995.502197 
	C1019.695068,2927.183838 1019.950806,2858.859863 1019.957642,2790.538086 
	C1019.965149,2715.550781 1019.660461,2640.559814 1020.363892,2565.578857 
	C1020.509033,2550.111572 1023.632324,2534.491943 1026.950562,2519.284424 
	C1030.472900,2503.141357 1040.472778,2490.474365 1053.201416,2480.139160 
	C1055.993286,2477.872070 1059.361694,2475.968750 1062.777588,2474.877197 
	C1077.381104,2470.210205 1092.114502,2466.267334 1107.651489,2465.832275 
	C1256.900635,2461.652344 1406.178223,2465.067383 1555.439575,2464.217041 
	C1571.063721,2464.127930 1586.557007,2466.612549 1599.531372,2477.407715 
	C1606.183228,2482.942383 1611.498657,2489.281250 1614.322266,2497.129639 
	C1622.671021,2520.334961 1622.295776,2542.711182 1606.610107,2563.350098 
	C1598.603027,2573.885986 1587.226807,2578.389404 1575.221191,2581.357178 
	C1567.879883,2583.171387 1560.074585,2583.774902 1552.476440,2583.783203 
	C1425.830811,2583.923828 1299.185181,2583.884277 1172.539429,2583.886475 
	C1169.206665,2583.886475 1165.869385,2583.800537 1162.542114,2583.941650 
	C1152.722900,2584.357178 1148.803101,2587.999512 1148.169189,2598.041260 
	C1147.729004,2605.014160 1147.988892,2612.031006 1147.935791,2620.023438 
z"/>
<path fill="#1C1C1C" opacity="1.000000" stroke="none" 
	d="
M1847.951172,2821.917480 
	C1866.329102,2787.104004 1884.417358,2752.972168 1902.417236,2718.793701 
	C1912.345581,2699.942139 1922.027832,2680.960449 1931.996826,2662.130615 
	C1946.641235,2634.469238 1961.424316,2606.881348 1976.183228,2579.280762 
	C1987.326050,2558.442383 1997.962036,2537.304688 2009.881714,2516.918945 
	C2018.777832,2501.704102 2029.492920,2487.737061 2043.676270,2476.575439 
	C2059.794189,2463.891357 2078.381104,2458.003662 2098.132324,2456.390137 
	C2111.270508,2455.316895 2124.863281,2455.927246 2137.877197,2458.066895 
	C2161.090332,2461.883789 2179.836182,2474.401855 2194.831299,2492.378418 
	C2209.846191,2510.378906 2221.224365,2530.666504 2231.934814,2551.434326 
	C2245.211426,2577.177490 2259.147461,2602.580078 2272.751221,2628.155273 
	C2286.663330,2654.310791 2300.487305,2680.513184 2314.406250,2706.665039 
	C2327.704102,2731.649414 2341.093750,2756.584961 2354.405518,2781.561768 
	C2363.015137,2797.715576 2371.540039,2813.914551 2380.133789,2830.076660 
	C2392.484375,2853.304688 2404.861816,2876.518311 2417.229736,2899.737061 
	C2426.775146,2917.656738 2436.313477,2935.580078 2445.874023,2953.491455 
	C2453.399414,2967.590088 2460.909912,2981.697021 2468.507080,2995.757080 
	C2475.322266,3008.369141 2482.355713,3020.942383 2484.754883,3035.289062 
	C2487.200195,3049.912842 2487.441895,3064.301758 2480.065430,3078.091553 
	C2468.741455,3099.261230 2441.601318,3113.010254 2417.801270,3109.343018 
	C2395.832764,3105.957764 2378.109375,3096.154785 2366.915283,3076.391357 
	C2354.943848,3055.254639 2343.081787,3034.052734 2331.454834,3012.725098 
	C2323.007324,2997.229736 2314.887939,2981.550537 2306.888428,2965.818115 
	C2303.379639,2958.917725 2298.855225,2955.671631 2290.498047,2955.690674 
	C2170.880127,2955.963135 2051.260742,2955.945557 1931.642456,2955.719727 
	C1923.829468,2955.705078 1919.633545,2958.407715 1916.150879,2965.261475 
	C1901.215820,2994.652100 1885.717773,3023.756104 1870.529663,3053.018799 
	C1862.965332,3067.592773 1853.755127,3080.867676 1842.379395,3092.819336 
	C1826.323242,3109.688232 1788.136963,3118.388672 1760.485229,3097.412354 
	C1747.968506,3087.917480 1739.579712,3075.923340 1737.292969,3060.323975 
	C1736.393799,3054.189209 1736.245361,3047.642090 1737.355103,3041.575684 
	C1739.945801,3027.413818 1745.616943,3014.347900 1752.630493,3001.685791 
	C1763.757568,2981.597168 1773.952881,2960.994629 1784.708130,2940.697266 
	C1799.050781,2913.629395 1813.563965,2886.652100 1827.980225,2859.623291 
	C1834.557861,2847.291016 1841.078125,2834.928467 1847.951172,2821.917480 
M2055.685547,2700.667480 
	C2052.920166,2705.979004 2050.150146,2711.288086 2047.390381,2716.602295 
	C2038.643677,2733.443848 2029.957886,2750.317139 2021.141602,2767.122314 
	C2010.625732,2787.167236 1999.963623,2807.135742 1989.471802,2827.193115 
	C1988.335205,2829.366211 1987.907227,2831.909668 1987.130005,2834.345459 
	C1997.681274,2836.885254 2228.584717,2836.549561 2236.666016,2834.013672 
	C2236.012939,2831.904297 2235.654297,2829.634766 2234.653809,2827.696777 
	C2228.697266,2816.160156 2222.599121,2804.696533 2216.536377,2793.214844 
	C2192.598145,2747.881592 2168.623779,2702.566895 2144.729004,2657.210693 
	C2135.107666,2638.947510 2125.689697,2620.577148 2116.078369,2602.308838 
	C2115.091553,2600.432861 2113.410400,2598.922119 2110.903564,2595.822754 
	C2092.267334,2631.169678 2074.299561,2665.248779 2055.685547,2700.667480 
z"/>
<path fill="#1C1C1C" opacity="1.000000" stroke="none" 
	d="
M331.901489,2920.000000 
	C331.901550,2958.323730 332.001068,2995.648193 331.822815,3032.970947 
	C331.784821,3040.923340 330.919373,3048.888916 330.121918,3056.817139 
	C326.507538,3092.751709 294.366272,3113.762451 258.075714,3109.226562 
	C245.834686,3107.696533 234.246918,3104.076660 224.216309,3095.822266 
	C211.795624,3085.600830 205.903366,3072.513916 204.070129,3057.081299 
	C203.796448,3054.777588 203.940002,3052.420898 203.939957,3050.088623 
	C203.936172,2871.800537 203.955826,2693.512695 203.888809,2515.224609 
	C203.885086,2505.350830 205.950012,2496.197266 210.182053,2487.260010 
	C219.389465,2467.815186 235.649750,2458.552246 255.954315,2456.351562 
	C265.721741,2455.292969 275.956177,2456.283936 285.721039,2457.903076 
	C310.517548,2462.015381 326.215393,2481.276611 329.719055,2504.682861 
	C331.239166,2514.837891 331.774506,2525.221191 331.810089,2535.503906 
	C332.003906,2591.489258 331.894531,2647.475342 331.907959,2703.461182 
	C331.911438,2717.957520 331.941956,2717.993164 346.184387,2717.994385 
	C463.487915,2718.004395 580.791443,2718.000488 698.094971,2717.998047 
	C700.094299,2717.998047 702.102783,2718.084473 704.091309,2717.929199 
	C710.391357,2717.438721 711.413147,2716.440674 711.851624,2710.041992 
	C712.056274,2707.055908 711.931946,2704.045898 711.932190,2701.046875 
	C711.936584,2639.062744 711.969543,2577.078369 711.918701,2515.094238 
	C711.904297,2497.527344 717.799194,2482.531738 730.662292,2470.427734 
	C738.713745,2462.851562 748.553894,2458.859863 759.251038,2457.219727 
	C779.528870,2454.110596 799.260925,2454.935791 816.346985,2468.252441 
	C829.653564,2478.623535 837.038757,2492.391846 837.968811,2509.305420 
	C838.370728,2516.615234 838.063538,2523.964600 838.064453,2531.295898 
	C838.086304,2702.918945 838.140381,2874.541748 838.012817,3046.164795 
	C838.007202,3053.723877 837.288757,3061.548096 835.260864,3068.789062 
	C829.904663,3087.913818 816.597656,3099.909180 798.133606,3106.145752 
	C779.991638,3112.273193 761.552795,3111.549805 744.514526,3103.355713 
	C724.887085,3093.916504 713.514465,3077.555176 712.069397,3055.300293 
	C711.595337,3047.998291 711.937805,3040.642334 711.937134,3033.311035 
	C711.932007,2972.992920 711.942017,2912.675049 711.927979,2852.356934 
	C711.924622,2837.930176 711.891235,2837.892334 697.557007,2837.891113 
	C580.586731,2837.880615 463.616425,2837.881104 346.646149,2837.890137 
	C331.932739,2837.891113 331.916595,2837.922852 331.906219,2853.017578 
	C331.891113,2875.011719 331.901978,2897.005859 331.901489,2920.000000 
z"/>
<path fill="#1C1C1C" opacity="1.000000" stroke="none" 
	d="
M3171.959961,2987.662109 
	C3190.093018,2996.001221 3200.021240,3009.845947 3202.997314,3028.514893 
	C3205.230469,3042.523193 3204.229248,3056.278564 3198.302246,3069.575439 
	C3189.342285,3089.676758 3172.031250,3096.642334 3152.184814,3099.899902 
	C3149.909912,3100.273193 3147.526611,3100.000244 3145.193604,3100.000244 
	C3003.871094,3100.003418 2862.548340,3100.028809 2721.225830,3099.977051 
	C2699.674561,3099.968994 2678.778320,3096.649414 2659.277832,3086.748047 
	C2649.076904,3081.568604 2641.741211,3073.873535 2636.726562,3063.596436 
	C2629.306152,3048.388916 2625.275879,3032.284180 2624.186523,3015.553711 
	C2623.020020,2997.635742 2622.183105,2979.660645 2622.163818,2961.709717 
	C2622.007080,2815.720947 2622.046143,2669.731934 2622.162109,2523.743164 
	C2622.167969,2516.468994 2622.802734,2509.068115 2624.233398,2501.945068 
	C2629.078613,2477.819336 2648.186768,2458.282959 2675.578857,2456.263428 
	C2685.123047,2455.559814 2695.162598,2455.348389 2704.371826,2457.499023 
	C2732.142090,2463.984863 2748.437256,2484.716797 2749.907471,2513.423828 
	C2750.145752,2518.079590 2750.043701,2522.754150 2750.043945,2527.420166 
	C2750.050781,2669.742676 2750.035645,2812.065186 2750.105713,2954.387695 
	C2750.108398,2960.013428 2750.841064,2965.645996 2751.370361,2971.262451 
	C2751.971191,2977.641113 2756.135498,2980.617188 2761.984619,2981.318604 
	C2766.596436,2981.871826 2771.282715,2981.981934 2775.936035,2981.983154 
	C2896.593506,2982.016357 3017.251221,2982.053223 3137.908691,2981.939697 
	C3149.394043,2981.928711 3160.460449,2983.512939 3171.959961,2987.662109 
z"/>
<path fill="#000101" opacity="1.000000" stroke="none" 
	d="
M1769.008789,903.016357 
	C1795.687866,874.843140 1824.420044,850.143616 1856.458740,829.512024 
	C1898.713623,802.301819 1944.058594,781.912598 1993.028320,770.116760 
	C2021.183716,763.334900 2049.549072,758.040100 2078.743164,757.886841 
	C2112.690918,757.708679 2146.633057,756.577576 2180.580811,756.090515 
	C2188.207031,755.981140 2195.888184,756.456299 2203.472412,757.304077 
	C2224.723877,759.679626 2246.312744,780.050659 2249.906494,801.162415 
	C2251.013428,807.666077 2251.544189,814.338623 2251.592773,820.939331 
	C2251.781006,846.602722 2251.880859,872.270386 2251.622559,897.932495 
	C2251.163330,943.572327 2246.836670,988.726746 2233.487549,1032.646606 
	C2217.992676,1083.626465 2195.128174,1130.922241 2163.388428,1173.868042 
	C2148.713867,1193.723389 2132.906494,1212.625000 2115.159668,1229.715210 
	C2051.934326,1290.600830 1978.007324,1331.840332 1891.810059,1350.439087 
	C1866.702271,1355.856445 1841.437866,1359.284546 1815.770752,1360.067261 
	C1797.532104,1360.623535 1779.305054,1361.563721 1760.423340,1362.359985 
	C1760.159058,1364.409546 1759.725586,1366.272827 1759.706177,1368.140137 
	C1759.223755,1414.747437 1758.697510,1461.354492 1758.371582,1507.963013 
	C1758.185181,1534.626343 1757.953857,1561.300293 1758.534668,1587.952393 
	C1758.751221,1597.890625 1755.686035,1606.083618 1750.493652,1614.027588 
	C1735.419434,1637.089966 1707.516968,1646.112549 1682.179321,1635.719727 
	C1665.409668,1628.841187 1655.448730,1615.384155 1648.765381,1599.206909 
	C1647.811768,1596.898560 1648.344727,1593.938354 1648.343506,1591.279907 
	C1648.322144,1545.950073 1648.403809,1500.619873 1648.294434,1455.290405 
	C1648.224487,1426.308228 1647.884399,1397.326660 1647.647217,1368.344971 
	C1647.633911,1366.718750 1647.456421,1365.093872 1647.300903,1362.594482 
	C1638.587524,1362.084106 1630.089600,1361.199951 1621.588013,1361.161621 
	C1597.281738,1361.052002 1573.084473,1359.725586 1548.996948,1356.336670 
	C1505.608032,1350.232422 1463.899780,1338.340332 1423.994629,1320.241455 
	C1374.414185,1297.754150 1330.574341,1267.130737 1291.645996,1228.961182 
	C1255.869995,1193.882568 1226.831543,1154.084839 1204.022461,1109.717407 
	C1186.783081,1076.184204 1174.545532,1040.738770 1166.294067,1003.903015 
	C1159.664429,974.307129 1156.089722,944.455688 1156.237915,914.082458 
	C1156.400513,880.771790 1155.708374,847.457642 1155.725708,814.145264 
	C1155.738525,789.732239 1167.702515,772.637756 1189.179321,761.732544 
	C1196.196655,758.169434 1203.690430,757.209900 1211.409912,757.039001 
	C1224.048096,756.759338 1236.700195,755.787231 1249.317871,756.135193 
	C1286.882202,757.171204 1324.715576,756.256104 1361.930664,760.550537 
	C1443.345825,769.945618 1516.457642,801.370972 1581.321533,851.502136 
	C1627.327637,887.058899 1665.581055,929.641968 1695.382324,979.688965 
	C1697.561157,983.348083 1700.030151,986.834412 1703.216919,991.704102 
	C1711.574829,981.611389 1716.483643,970.376587 1723.505249,960.627319 
	C1730.503784,950.910034 1737.277344,941.010498 1744.688477,931.616089 
	C1752.289429,921.981201 1760.543335,912.861450 1769.008789,903.016357 
M1540.070312,1240.833496 
	C1574.733398,1247.874756 1633.587769,1251.486206 1648.955933,1247.074341 
	C1647.427002,1221.571167 1646.716431,1195.692505 1644.153687,1169.998657 
	C1639.366821,1122.007324 1623.774780,1077.367798 1598.832397,1036.141357 
	C1580.648438,1006.085693 1558.204102,979.502747 1532.039307,955.951660 
	C1493.027344,920.836548 1447.977417,896.848938 1397.906250,881.974182 
	C1370.036377,873.694824 1341.325439,870.359924 1312.385864,869.196350 
	C1297.852905,868.611938 1283.276978,869.094421 1268.250977,869.094421 
	C1268.006226,872.395935 1267.628296,874.656555 1267.704712,876.901672 
	C1268.473389,899.476868 1268.505249,922.115112 1270.323975,944.607910 
	C1273.241577,980.692932 1283.694580,1014.937683 1298.616699,1047.840088 
	C1318.842529,1092.437256 1348.047607,1130.378052 1384.402954,1162.937378 
	C1405.817993,1182.116455 1429.603760,1197.882446 1455.217896,1210.877075 
	C1481.674316,1224.299072 1509.188843,1234.799927 1540.070312,1240.833496 
M1955.510742,902.462646 
	C1948.112671,906.245178 1940.596558,909.815247 1933.336548,913.846436 
	C1898.943970,932.943237 1869.350830,957.982300 1843.572998,987.533875 
	C1809.400269,1026.709473 1785.531982,1071.460693 1771.851685,1121.661255 
	C1764.213867,1149.688843 1760.603027,1178.268799 1759.744263,1207.216553 
	C1759.343140,1220.738403 1759.675781,1234.282104 1759.675781,1248.449097 
	C1761.700684,1248.622314 1764.300049,1249.087158 1766.885986,1249.022461 
	C1776.520752,1248.781250 1786.150269,1248.100952 1795.783325,1248.069702 
	C1818.104858,1247.997192 1840.261475,1246.302002 1862.155518,1241.880615 
	C1937.992920,1226.565796 2001.784180,1189.887573 2053.310547,1132.397339 
	C2088.438965,1093.203491 2112.962646,1047.937256 2126.606445,996.934082 
	C2132.447021,975.101135 2137.197998,953.125305 2137.767334,930.393738 
	C2138.157715,914.796265 2139.055908,899.212097 2139.636475,883.618591 
	C2139.805664,879.075378 2139.662842,874.520569 2139.662842,869.818787 
	C2075.237305,865.813660 2014.425049,874.483521 1955.510742,902.462646 
z"/>
<path fill="#000000" opacity="1.000000" stroke="none" 
	d="
M2056.008789,2699.997803 
	C2074.299561,2665.248779 2092.267334,2631.169678 2110.903564,2595.822754 
	C2113.410400,2598.922119 2115.091553,2600.432861 2116.078369,2602.308838 
	C2125.689697,2620.577148 2135.107666,2638.947510 2144.729004,2657.210693 
	C2168.623779,2702.566895 2192.598145,2747.881592 2216.536377,2793.214844 
	C2222.599121,2804.696533 2228.697266,2816.160156 2234.653809,2827.696777 
	C2235.654297,2829.634766 2236.012939,2831.904297 2236.666016,2834.013672 
	C2228.584717,2836.549561 1997.681274,2836.885254 1987.130005,2834.345459 
	C1987.907227,2831.909668 1988.335205,2829.366211 1989.471802,2827.193115 
	C1999.963623,2807.135742 2010.625732,2787.167236 2021.141602,2767.122314 
	C2029.957886,2750.317139 2038.643677,2733.443848 2047.390381,2716.602295 
	C2050.150146,2711.288086 2052.920166,2705.979004 2056.008789,2699.997803 
z"/>
<path fill="#4A90E1" opacity="1.000000" stroke="none" 
	d="
M1539.248413,1240.625000 
	C1509.188843,1234.799927 1481.674316,1224.299072 1455.217896,1210.877075 
	C1429.603760,1197.882446 1405.817993,1182.116455 1384.402954,1162.937378 
	C1348.047607,1130.378052 1318.842529,1092.437256 1298.616699,1047.840088 
	C1283.694580,1014.937683 1273.241577,980.692932 1270.323975,944.607910 
	C1268.505249,922.115112 1268.473389,899.476868 1267.704712,876.901672 
	C1267.628296,874.656555 1268.006226,872.395935 1268.250977,869.094421 
	C1283.276978,869.094421 1297.852905,868.611938 1312.385864,869.196350 
	C1341.325439,870.359924 1370.036377,873.694824 1397.906250,881.974182 
	C1447.977417,896.848938 1493.027344,920.836548 1532.039307,955.951660 
	C1558.204102,979.502747 1580.648438,1006.085693 1598.832397,1036.141357 
	C1623.774780,1077.367798 1639.366821,1122.007324 1644.153687,1169.998657 
	C1646.716431,1195.692505 1647.427002,1221.571167 1648.955933,1247.074341 
	C1633.587769,1251.486206 1574.733398,1247.874756 1539.248413,1240.625000 
z"/>
<path fill="#4A90E1" opacity="1.000000" stroke="none" 
	d="
M1956.207275,902.169312 
	C2014.425049,874.483521 2075.237305,865.813660 2139.662842,869.818787 
	C2139.662842,874.520569 2139.805664,879.075378 2139.636475,883.618591 
	C2139.055908,899.212097 2138.157715,914.796265 2137.767334,930.393738 
	C2137.197998,953.125305 2132.447021,975.101135 2126.606445,996.934082 
	C2112.962646,1047.937256 2088.438965,1093.203491 2053.310547,1132.397339 
	C2001.784180,1189.887573 1937.992920,1226.565796 1862.155518,1241.880615 
	C1840.261475,1246.302002 1818.104858,1247.997192 1795.783325,1248.069702 
	C1786.150269,1248.100952 1776.520752,1248.781250 1766.885986,1249.022461 
	C1764.300049,1249.087158 1761.700684,1248.622314 1759.675781,1248.449097 
	C1759.675781,1234.282104 1759.343140,1220.738403 1759.744263,1207.216553 
	C1760.603027,1178.268799 1764.213867,1149.688843 1771.851685,1121.661255 
	C1785.531982,1071.460693 1809.400269,1026.709473 1843.572998,987.533875 
	C1869.350830,957.982300 1898.943970,932.943237 1933.336548,913.846436 
	C1940.596558,909.815247 1948.112671,906.245178 1956.207275,902.169312 
z"/>
</svg>
